<svg width="215" height="23" viewBox="0 0 215 23" fill="none" xmlns="http://www.w3.org/2000/svg">
<g clip-path="url(#clip0_368_576)">
<path d="M50.883 22.935H47.2834L46.6571 18.8026H42.2681L41.6514 22.9398H38.3686L42.0089 0.134644H47.2426L50.883 22.935ZM42.724 15.7021H46.17L44.447 4.1564L42.724 15.7021Z" fill="black"/>
<path d="M62.5503 3.38674H58.3916V17.2656C58.4209 18.2286 58.2779 19.1891 57.9693 20.1015C57.7353 20.7653 57.3451 21.3626 56.8318 21.843C56.3603 22.2639 55.7988 22.5708 55.1904 22.7402C54.5605 22.9148 53.9098 23.0022 53.2563 23H52.378C52.0953 22.9983 51.813 22.9766 51.5333 22.935V19.6782C51.7381 19.7 51.944 19.7104 52.15 19.7095H52.7667C53.2791 19.7234 53.7829 19.5753 54.2066 19.2861C54.6065 19.0055 54.8073 18.4194 54.8089 17.5278V0.129883H66.1186V22.935H62.5431L62.5503 3.38674Z" fill="black"/>
<path d="M68.7271 22.9351V0.129883H72.3026V8.70016H73.9824C75.7821 8.70016 77.1204 9.18123 77.997 10.1434C78.8737 11.1055 79.3129 12.5062 79.3145 14.3455V17.3113C79.3145 19.1554 78.8753 20.5562 77.997 21.5135C77.1188 22.4708 75.7805 22.9519 73.9824 22.9567L68.7271 22.9351ZM73.992 19.6782C74.2283 19.6939 74.4653 19.6614 74.6889 19.5829C74.9124 19.5044 75.1177 19.3813 75.2926 19.2212C75.595 18.9181 75.7485 18.3529 75.7485 17.5374V14.105C75.7485 13.28 75.595 12.7171 75.2926 12.4212C75.1174 12.2616 74.912 12.1388 74.6886 12.0603C74.4651 11.9818 74.2283 11.9491 73.992 11.9642H72.3122V19.6878L73.992 19.6782Z" fill="black"/>
<path d="M79.972 0.129883H91.0249V3.38673H87.2862V22.935H83.7107V3.38673H79.972V0.129883Z" fill="black"/>
<path d="M96.2155 9.73928H101.123V12.9985H96.2155V19.6782H102.39V22.935H92.6495V0.129883H102.399V3.38673H96.2155V9.73928Z" fill="black"/>
<path d="M109.779 0.129883C111.577 0.129883 112.914 0.610954 113.791 1.5731C114.667 2.53524 115.107 3.93596 115.108 5.77525V8.74105C115.108 10.5868 114.669 11.9875 113.791 12.9432C112.913 13.8989 111.575 14.38 109.779 14.3864H108.099V22.9543H104.523V0.129883H109.779ZM108.099 3.38674V11.1055H109.779C110.014 11.121 110.251 11.0888 110.474 11.0107C110.697 10.9325 110.902 10.8102 111.077 10.6509C111.382 10.3454 111.533 9.78257 111.533 8.95513V5.53712C111.533 4.71128 111.381 4.15004 111.077 3.85337C110.902 3.69319 110.697 3.5701 110.474 3.49155C110.251 3.413 110.014 3.38062 109.779 3.39636L108.099 3.38674Z" fill="black"/>
<path d="M120.308 22.935H116.733V0.129883H120.308V9.90284H124.371V0.129883H128.011V22.935H124.371V13.1621H120.308V22.935Z" fill="black"/>
<path d="M142.15 22.935H138.551L137.924 18.8027H133.538L132.931 22.935H129.636L133.276 0.129883H138.51L142.15 22.935ZM133.991 15.7021H137.437L135.714 4.15645L133.991 15.7021Z" fill="black"/>
<path d="M142.801 0.129883H153.839V3.38673H150.115V22.935H146.539V3.38673H142.801V0.129883Z" fill="black"/>
<path d="M159.15 22.935H155.488V0.129883H158.675V13.7803L162.346 0.129883H166.831V22.935H163.615V6.41748L159.15 22.935Z" fill="black"/>
<path d="M174.815 0.129883C176.679 0.129883 178.028 0.563649 178.863 1.43118C179.698 2.29871 180.115 3.61284 180.113 5.37356V6.18897C180.148 7.18515 179.96 8.1765 179.561 9.08983C179.194 9.84206 178.571 10.4388 177.805 10.7736C178.251 10.924 178.663 11.1612 179.018 11.4716C179.372 11.782 179.662 12.1595 179.871 12.5824C180.298 13.5507 180.504 14.6029 180.471 15.6613V17.5182C180.471 19.2821 180.016 20.6227 179.105 21.5399C178.195 22.4572 176.841 22.919 175.043 22.9254H169.42V0.129883H174.815ZM173.005 3.38673V9.42177H174.402C174.975 9.45626 175.539 9.26947 175.979 8.89981C176.358 8.55344 176.547 7.92403 176.547 7.0116V5.73917C176.547 4.91333 176.401 4.316 176.108 3.94718C175.816 3.57916 175.357 3.39395 174.728 3.39395L173.005 3.38673ZM173.005 12.6714V19.6782H175.052C175.303 19.6974 175.556 19.6646 175.793 19.5819C176.031 19.4991 176.25 19.3681 176.435 19.1971C176.755 18.8764 176.915 18.2903 176.915 17.4388V15.4352C176.915 14.3696 176.737 13.6432 176.379 13.2511C176.022 12.859 175.42 12.6642 174.606 12.6642L173.005 12.6714Z" fill="black"/>
<path d="M194.123 22.935H190.523L189.897 18.8027H185.51L184.891 22.9399H181.608L185.244 0.129883H190.478L194.123 22.935ZM185.964 15.7022H189.41L187.687 4.15645L185.964 15.7022Z" fill="black"/>
<path d="M17.4697 0.0408936H5.32731C2.38512 0.0408936 0 2.43164 0 5.38078V17.5519C0 20.501 2.38512 22.8918 5.32731 22.8918H17.4697C20.4119 22.8918 22.797 20.501 22.797 17.5519V5.38078C22.797 2.43164 20.4119 0.0408936 17.4697 0.0408936Z" fill="#3FA9F5"/>
<path d="M23.217 0.0408936H11.0746C8.13237 0.0408936 5.74725 2.43164 5.74725 5.38078V17.5519C5.74725 20.501 8.13237 22.8918 11.0746 22.8918H23.217C26.1592 22.8918 28.5443 20.501 28.5443 17.5519V5.38078C28.5443 2.43164 26.1592 0.0408936 23.217 0.0408936Z" fill="url(#paint0_linear_368_576)"/>
<path d="M203.961 0H215V3.25685H211.264V22.7979H207.691V3.25685H203.961V0Z" fill="black"/>
</g>
<defs>
<linearGradient id="paint0_linear_368_576" x1="5.74725" y1="11.4663" x2="28.5443" y2="11.4663" gradientUnits="userSpaceOnUse">
<stop stop-color="#FF4148"/>
<stop offset="1" stop-color="#FF931E"/>
</linearGradient>
<clipPath id="clip0_368_576">
<rect width="215" height="23" fill="white"/>
</clipPath>
</defs>
</svg>
